<?xml version="1.0" standalone="no"?>
<!DOCTYPE svg PUBLIC "-//W3C//DTD SVG 20010904//EN"
 "http://www.w3.org/TR/2001/REC-SVG-20010904/DTD/svg10.dtd">
<svg version="1.0" xmlns="http://www.w3.org/2000/svg"
 width="2000.000000pt" height="2000.000000pt" viewBox="0 0 2000.000000 2000.000000"
 preserveAspectRatio="xMidYMid meet">
<metadata>
Created by potrace 1.11, written by Peter Selinger 2001-2013
</metadata>
<g transform="translate(0.000000,2000.000000) scale(0.100000,-0.100000)"
fill="#000000" stroke="none">
<path d="M9618 19995 c-2 -1 -74 -6 -161 -10 -87 -3 -168 -8 -180 -10 -12 -2
-65 -6 -117 -10 -52 -3 -108 -8 -125 -10 -16 -2 -57 -7 -90 -10 -62 -6 -133
-14 -173 -20 -13 -2 -53 -7 -90 -11 -37 -3 -76 -8 -87 -10 -11 -3 -51 -9 -90
-14 -93 -14 -190 -29 -215 -35 -3 0 -27 -4 -53 -9 -56 -9 -73 -12 -142 -26
-27 -6 -61 -12 -75 -15 -23 -4 -42 -8 -95 -20 -11 -2 -54 -11 -95 -20 -345
-73 -790 -201 -1175 -337 -146 -52 -328 -120 -380 -143 -16 -8 -81 -35 -144
-60 -379 -154 -872 -404 -1270 -644 -78 -47 -155 -94 -170 -103 -14 -10 -38
-24 -53 -33 -30 -16 -266 -175 -358 -240 -80 -56 -263 -188 -275 -197 -5 -5
-67 -52 -136 -106 -115 -89 -360 -289 -413 -337 -12 -11 -53 -47 -91 -80 -185
-162 -571 -543 -740 -729 -166 -184 -181 -201 -261 -296 -251 -297 -476 -597
-692 -921 -95 -143 -292 -457 -292 -466 0 -3 -8 -17 -18 -31 -11 -15 -32 -52
-49 -82 -16 -30 -51 -92 -77 -138 -134 -236 -340 -664 -467 -970 -34 -81 -67
-160 -74 -177 -13 -31 -64 -169 -133 -360 -42 -115 -109 -319 -122 -370 -5
-16 -24 -84 -44 -150 -20 -66 -38 -129 -41 -140 -2 -11 -20 -78 -39 -150 -19
-71 -36 -143 -39 -160 -3 -16 -10 -46 -16 -65 -6 -19 -12 -46 -15 -60 -2 -14
-14 -69 -26 -124 -12 -54 -23 -108 -26 -120 -2 -11 -6 -32 -9 -46 -3 -14 -7
-43 -11 -65 -3 -22 -9 -56 -14 -75 -7 -29 -32 -180 -45 -265 -12 -90 -35 -260
-40 -304 -4 -30 -8 -61 -10 -70 -2 -14 -6 -51 -20 -196 -2 -16 -6 -68 -10
-115 -4 -47 -8 -103 -10 -125 -27 -293 -27 -1126 0 -1430 2 -22 6 -76 10 -120
8 -112 15 -184 20 -225 3 -19 7 -57 10 -85 3 -27 8 -66 10 -85 3 -19 7 -57 11
-85 6 -59 13 -100 19 -135 3 -14 7 -42 10 -62 3 -21 7 -55 10 -75 6 -40 22
-132 30 -173 3 -14 8 -40 10 -57 3 -18 9 -52 14 -75 6 -24 12 -58 16 -76 29
-165 120 -539 196 -807 66 -231 238 -738 288 -850 5 -11 26 -63 46 -115 127
-327 464 -1019 615 -1260 5 -8 23 -40 41 -70 82 -141 398 -633 418 -650 3 -3
26 -34 51 -70 43 -64 255 -347 302 -404 12 -15 55 -67 93 -115 91 -113 172
-208 254 -300 36 -41 71 -79 76 -85 205 -232 559 -580 875 -860 140 -124 468
-385 707 -561 63 -47 520 -353 574 -384 13 -8 74 -45 134 -81 100 -61 242
-142 430 -245 75 -42 404 -206 495 -248 30 -14 87 -39 125 -57 415 -190 1140
-446 1526 -540 56 -14 56 -13 174 -44 55 -14 120 -30 145 -35 25 -5 122 -25
215 -45 94 -19 181 -37 195 -39 197 -36 368 -63 440 -71 25 -3 95 -12 155 -20
61 -8 142 -17 180 -21 39 -3 86 -8 105 -10 19 -3 71 -7 115 -10 44 -4 94 -8
110 -10 168 -19 937 -27 1225 -11 259 13 286 15 440 31 25 2 74 7 110 10 36 4
76 8 90 10 14 2 50 7 80 10 85 10 110 14 185 24 115 17 147 22 205 31 30 5 72
12 94 16 21 3 48 8 60 10 11 2 37 7 56 10 19 3 42 7 50 9 8 2 29 7 45 9 126
22 477 103 670 156 61 17 119 32 130 35 39 9 232 68 340 103 61 20 115 37 120
38 15 3 243 86 380 137 116 44 339 134 400 162 17 7 57 25 90 40 558 244 1197
607 1715 974 144 102 389 285 424 316 6 6 45 37 86 70 440 348 973 867 1350
1315 30 36 57 67 60 70 25 22 297 372 431 555 139 188 379 557 521 800 153
259 338 614 448 856 94 205 100 220 100 224 0 2 13 33 29 67 25 56 77 185 171
428 36 93 170 493 205 615 75 254 186 696 210 835 3 19 10 54 16 78 5 23 12
59 15 80 3 20 9 53 14 72 4 19 12 58 16 85 4 28 9 57 10 65 2 8 6 35 9 60 3
25 10 70 15 100 5 30 12 75 15 100 3 25 8 56 10 70 2 14 7 52 10 85 4 33 8 71
10 85 5 31 24 233 31 320 2 36 6 85 9 110 27 269 27 1129 0 1420 -2 19 -6 73
-10 120 -3 47 -8 101 -10 120 -2 19 -6 64 -9 100 -4 36 -8 76 -11 90 -2 14 -6
48 -9 75 -8 68 -15 123 -32 240 -21 148 -24 165 -34 220 -5 28 -12 67 -15 88
-29 205 -161 764 -260 1097 -63 217 -222 679 -265 775 -5 11 -34 81 -64 155
-130 320 -350 783 -486 1021 -24 41 -54 94 -68 119 -91 162 -236 400 -349 571
-111 167 -356 516 -373 529 -3 3 -35 43 -71 89 -123 160 -148 192 -226 284
-43 50 -82 97 -88 103 -5 6 -35 40 -65 75 -225 261 -599 639 -870 879 -40 36
-78 70 -84 75 -6 6 -72 62 -146 124 -74 61 -155 129 -179 149 -24 20 -51 41
-60 46 -9 5 -18 12 -21 16 -6 8 -269 205 -320 240 -19 13 -37 27 -40 31 -9 11
-402 274 -515 344 -117 73 -301 182 -375 223 -25 13 -58 32 -75 42 -318 185
-922 463 -1350 622 -78 29 -390 138 -410 142 -5 2 -17 6 -25 9 -82 31 -445
133 -665 186 -238 58 -241 59 -325 76 -41 9 -86 18 -100 21 -14 3 -36 7 -50 9
-14 2 -59 10 -100 19 -69 14 -103 20 -185 32 -16 3 -52 9 -80 14 -27 5 -75 12
-105 16 -30 3 -62 8 -70 9 -15 3 -88 12 -150 20 -19 2 -62 7 -95 10 -33 4 -73
8 -90 10 -32 3 -131 13 -205 20 -25 2 -92 7 -150 11 -58 3 -125 8 -150 11 -51
5 -917 13 -922 8z"/>
</g>
</svg>
